<?xml version="1.0" standalone="no"?>
<!DOCTYPE svg PUBLIC "-//W3C//DTD SVG 20010904//EN"
 "http://www.w3.org/TR/2001/REC-SVG-20010904/DTD/svg10.dtd">
<svg version="1.0" xmlns="http://www.w3.org/2000/svg"
 width="514.000000pt" height="514.000000pt" viewBox="0 0 514.000000 514.000000"
 preserveAspectRatio="xMidYMid meet">
<metadata>
Created by potrace 1.16, written by Peter Selinger 2001-2019
</metadata>
<g transform="translate(0.000000,514.000000) scale(0.100000,-0.100000)"
fill="#000000" stroke="none">
<path d="M3215 4938 c-106 -118 -248 -323 -344 -500 -24 -43 -46 -78 -49 -78
-4 0 -19 33 -34 73 -59 157 -185 296 -330 366 -130 63 -235 85 -413 85 l-150
1 -18 -37 c-27 -55 -33 -203 -13 -296 27 -130 76 -214 185 -322 152 -150 327
-235 509 -247 45 -3 82 -9 82 -12 0 -12 -62 -166 -70 -174 -4 -5 -52 6 -106
23 -266 85 -456 115 -729 114 -176 0 -226 -4 -310 -22 -280 -60 -490 -173
-665 -358 -179 -190 -287 -407 -336 -679 -22 -124 -25 -462 -5 -605 119 -860
610 -1652 1206 -1948 171 -85 330 -122 520 -122 140 0 238 16 374 61 l94 32
76 -26 c144 -49 193 -58 346 -64 227 -8 377 26 586 134 143 73 260 163 404
307 186 188 313 366 450 636 312 615 408 1308 249 1795 -62 189 -166 357 -309
500 -197 198 -436 311 -739 351 -152 20 -410 13 -571 -15 -60 -11 -111 -18
-113 -16 -8 8 186 221 314 345 152 147 289 261 432 359 71 49 92 68 92 86 0
32 -79 136 -140 184 -103 81 -219 121 -355 121 l-73 0 -47 -52z"/>
</g>
</svg>
