<?xml version="1.0" standalone="no"?>
<!DOCTYPE svg PUBLIC "-//W3C//DTD SVG 20010904//EN"
 "http://www.w3.org/TR/2001/REC-SVG-20010904/DTD/svg10.dtd">
<svg version="1.0" xmlns="http://www.w3.org/2000/svg"
 width="200.000000pt" height="200.000000pt" viewBox="0 0 200.000000 200.000000"
 preserveAspectRatio="xMidYMid meet">
<metadata>
Created by potrace 1.16, written by Peter Selinger 2001-2019
</metadata>
<g transform="translate(0.000000,200.000000) scale(0.100000,-0.100000)"
fill="#000000" stroke="none">
<path d="M763 1855 c-161 -41 -300 -123 -419 -246 -177 -183 -262 -407 -251
-659 12 -270 125 -499 324 -660 192 -155 431 -227 667 -201 372 42 662 285
773 648 24 80 27 103 27 248 0 145 -3 168 -27 248 -97 315 -333 544 -644 623
-134 34 -318 33 -450 -1z m61 -347 c3 -29 6 -96 6 -148 0 -102 7 -120 47 -120
29 0 32 14 35 172 2 69 6 130 10 133 4 4 14 5 23 2 13 -5 15 -34 15 -192 0
-202 0 -200 -61 -281 l-39 -51 0 -336 c0 -292 -2 -338 -16 -351 -18 -19 -38
-20 -65 -6 -18 10 -19 25 -19 353 l0 343 -36 35 c-75 73 -77 78 -72 285 4 179
11 216 37 200 7 -5 11 -55 11 -141 0 -73 3 -140 6 -149 7 -19 55 -21 72 -4 8
8 12 57 12 153 0 78 3 145 7 148 14 15 20 5 27 -45z m350 20 c14 -19 16 -71
16 -364 l0 -341 24 -11 c14 -6 36 -35 52 -68 24 -49 29 -74 32 -154 5 -114 -8
-168 -51 -217 -66 -75 -138 -75 -213 1 -53 53 -67 103 -62 221 5 106 39 197
82 217 l26 11 0 345 c0 307 2 347 17 364 22 25 59 23 77 -4z"/>
</g>
</svg>
