<?xml version="1.0" standalone="no"?>
<!DOCTYPE svg PUBLIC "-//W3C//DTD SVG 20010904//EN"
 "http://www.w3.org/TR/2001/REC-SVG-20010904/DTD/svg10.dtd">
<svg version="1.0" xmlns="http://www.w3.org/2000/svg"
 width="411.000000pt" height="411.000000pt" viewBox="0 0 411.000000 411.000000"
 preserveAspectRatio="xMidYMid meet">
<metadata>
Created by potrace 1.16, written by Peter Selinger 2001-2019
</metadata>
<g transform="translate(0.000000,411.000000) scale(0.100000,-0.100000)"
fill="#000000" stroke="none">
<path d="M490 3918 c-38 -15 -74 -40 -116 -82 -81 -81 -104 -141 -104 -271 l0
-95 -40 0 -40 0 0 -55 0 -55 40 0 40 0 0 -219 0 -220 -37 -3 -38 -3 -3 -52 -3
-53 41 0 40 0 -2 -222 -3 -223 -37 -3 -38 -3 0 -49 0 -49 38 -3 37 -3 0 -220
0 -220 -37 -3 -38 -3 0 -49 0 -49 38 -3 37 -3 3 -223 2 -222 -40 0 -41 0 3
-52 3 -53 38 -3 37 -3 0 -220 0 -219 -40 0 -40 0 0 -55 0 -55 40 0 40 0 0 -95
c0 -130 23 -190 104 -271 90 -89 135 -104 326 -104 l150 0 0 1905 0 1905 -152
-1 c-131 0 -161 -3 -208 -21z m151 -391 c76 -50 87 -141 25 -203 -57 -57 -131
-57 -187 -1 l-33 32 62 3 62 3 0 54 0 55 -60 0 -60 0 15 24 c36 55 120 71 176
33z m-17 -541 c135 -57 92 -256 -56 -256 -38 0 -92 30 -108 59 -10 20 -8 21
50 21 l60 0 0 55 0 55 -62 0 -61 0 24 26 c26 28 73 53 102 54 10 0 32 -6 51
-14z m24 -566 c34 -21 62 -71 62 -111 0 -36 -32 -90 -64 -110 -59 -36 -156
-14 -186 40 -10 20 -8 21 50 21 l60 0 0 50 0 49 -62 3 -63 3 37 38 c32 33 42
37 85 37 30 0 60 -7 81 -20z m-2 -549 c32 -20 64 -74 64 -110 0 -74 -62 -131
-144 -131 -42 0 -52 4 -85 38 l-36 37 63 3 62 3 0 49 0 50 -60 0 c-58 0 -60 1
-50 21 30 54 127 76 186 40z m-9 -548 c25 -12 41 -29 55 -61 24 -53 18 -98
-18 -141 -52 -62 -140 -63 -199 -1 l-29 30 62 0 62 0 0 55 0 55 -60 0 c-58 0
-60 1 -50 21 16 29 70 59 108 59 19 0 50 -8 69 -17z m4 -556 c76 -50 87 -141
25 -203 -57 -57 -131 -57 -187 -1 l-33 32 62 3 62 3 0 54 0 55 -60 0 -60 0 15
24 c36 55 120 71 176 33z"/>
<path d="M910 2035 l0 -1905 1460 0 1460 0 0 1905 0 1905 -1460 0 -1460 0 0
-1905z m1486 944 c142 -26 272 -120 327 -237 23 -49 33 -62 46 -57 9 4 51 14
93 23 193 41 399 -51 479 -214 29 -59 31 -69 27 -146 -5 -100 -37 -168 -107
-229 -52 -46 -149 -95 -206 -104 -22 -3 -50 -8 -62 -11 l-23 -4 0 -304 c0
-168 -3 -311 -6 -320 -6 -14 -75 -16 -685 -16 l-679 0 -2 322 -3 323 -45 7
c-133 20 -249 100 -308 213 -23 43 -27 62 -27 135 1 97 21 151 84 220 109 120
322 171 481 115 58 -21 67 -19 75 13 3 15 20 48 37 75 97 152 303 233 504 196z
m564 -1829 l0 -140 -680 0 -680 0 0 140 0 140 680 0 680 0 0 -140z"/>
</g>
</svg>
