<?xml version="1.0" standalone="no"?>
<!DOCTYPE svg PUBLIC "-//W3C//DTD SVG 20010904//EN"
 "http://www.w3.org/TR/2001/REC-SVG-20010904/DTD/svg10.dtd">
<svg version="1.0" xmlns="http://www.w3.org/2000/svg"
 width="237.000000pt" height="237.000000pt" viewBox="0 0 237.000000 237.000000"
 preserveAspectRatio="xMidYMid meet">
<metadata>
Created by potrace 1.16, written by Peter Selinger 2001-2019
</metadata>
<g transform="translate(0.000000,237.000000) scale(0.100000,-0.100000)"
fill="#000000" stroke="none">
<path d="M110 2081 l0 -110 107 -3 106 -3 171 -360 c94 -198 179 -379 190
-402 l18 -41 -82 -152 c-76 -139 -83 -157 -84 -208 0 -85 41 -155 116 -193 35
-18 68 -19 708 -19 l670 0 0 105 0 105 -627 2 c-583 3 -628 4 -631 20 -2 10
18 55 44 102 l47 85 426 3 c414 3 427 4 466 25 22 11 50 32 61 45 37 41 424
753 424 781 0 14 -5 38 -12 52 -26 57 2 55 -868 55 l-800 0 -53 108 -53 107
-172 3 -172 2 0 -109z"/>
<path d="M676 465 c-97 -34 -157 -144 -135 -247 22 -101 133 -179 232 -164
179 29 248 235 122 361 -61 61 -139 79 -219 50z"/>
<path d="M1720 453 c-150 -79 -157 -285 -12 -370 100 -59 230 -26 289 75 22
37 28 59 28 107 0 114 -80 200 -197 212 -45 4 -61 1 -108 -24z"/>
</g>
</svg>
